PathFileType  4	(X/Y/Z) C:\Users\antoi\Documents\MyRepositories\mobilecap\ResultsAnalysis
DataRate	CameraRate	NumFrames	NumMarkers	Units	OrigDataRate	OrigDataStartFrame	OrigNumFrames
100.0	100.0	4	51	mm	100.0	1	280
Frame#	Time	r_knee			r_shank_antsup			r_ankle			r_calc			r_5meta			r_toe			L_knee			L_shank_antsup			L_ankle			L_calc			L_5meta			L_toe			r_sh2			r_sh3			r_sh4			L_sh2			L_sh3			r_thigh1			r_thigh2			r_thigh3			r_thigh4			r_thigh5			L_thigh1			L_thigh2			L_thigh3			L_thigh4			r.ASIS			r.PSIS			L.ASIS			L.PSIS			C7			R_Shoulder			L_Shoulder			R_Sternum			L_Sternum			R_humerus			R_elbow_med			R_elbow_lat			R_forearm			R_wrist_radius			R_wrist_ulna			L_humerus			L_elbow_med			L_elbow_lat			L_forearm			L_wrist_radius			L_wrist_ulna			R_HJC			L_HJC			R_HJC_reg			L_HJC_reg			
		X1	Y1	Z1	X2	Y2	Z2	X3	Y3	Z3	X4	Y4	Z4	X5	Y5	Z5	X6	Y6	Z6	X7	Y7	Z7	X8	Y8	Z8	X9	Y9	Z9	X10	Y10	Z10	X11	Y11	Z11	X12	Y12	Z12	X13	Y13	Z13	X14	Y14	Z14	X15	Y15	Z15	X16	Y16	Z16	X17	Y17	Z17	X18	Y18	Z18	X19	Y19	Z19	X20	Y20	Z20	X21	Y21	Z21	X22	Y22	Z22	X23	Y23	Z23	X24	Y24	Z24	X25	Y25	Z25	X26	Y26	Z26	X27	Y27	Z27	X28	Y28	Z28	X29	Y29	Z29	X30	Y30	Z30	X31	Y31	Z31	X32	Y32	Z32	X33	Y33	Z33	X34	Y34	Z34	X35	Y35	Z35	X36	Y36	Z36	X37	Y37	Z37	X38	Y38	Z38	X39	Y39	Z39	X40	Y40	Z40	X41	Y41	Z41	X42	Y42	Z42	X43	Y43	Z43	X44	Y44	Z44	X45	Y45	Z45	X46	Y46	Z46	X47	Y47	Z47	X48	Y48	Z48	X49	Y49	Z49	X50	Y50	Z50	X51	Y51	Z51	

1	0.00000000	-1144.38991	851.92881	-430.79373	-1127.05290	722.54813	-441.50441	-1260.02599	406.12926	-437.16494	-1329.87879	372.94131	-480.66298	-1126.81640	344.34853	-400.44136	-1093.87196	366.81829	-477.01774	-1184.69459	845.17601	-753.18985	-1151.63626	734.02405	-735.12226	-1271.30004	404.38804	-728.85906	-1332.85738	376.61239	-678.80647	-1130.89685	344.34094	-762.14795	-1097.02234	367.35505	-693.98912	-1145.32085	609.27321	-462.79114	-1185.87022	721.14328	-389.51536	-1194.65385	604.44917	-394.11998	-1232.01980	742.85980	-776.61338	-1224.02207	621.94927	-787.65884	-1037.25940	1080.40158	-452.35370	-1046.81663	969.98680	-467.01272	-1071.87723	941.47402	-412.05562	-1117.22992	1074.73003	-370.31748	-1122.03304	956.64119	-395.08311	-1089.42291	1094.22640	-776.01703	-1090.31257	956.27979	-761.02081	-1199.27604	1090.34983	-810.90933	-1199.52036	952.86057	-783.18105	-1063.64275	1350.89168	-449.98491	-1271.84433	1405.10830	-524.07967	-1070.28267	1344.16568	-716.04971	-1243.80868	1438.88545	-633.82545	-1187.19434	1897.62447	-589.91581	-1120.37646	1819.11354	-402.51831	-1128.09908	1837.76821	-770.05739	-1057.15356	1801.19170	-567.56395	-1056.06646	1800.18105	-609.62653	-1124.71566	1649.02167	-328.99894	-1225.84108	1434.51716	-367.31727	-1202.51502	1459.72616	-288.04857	-1104.30306	1313.61314	-284.28915	-1066.16939	1197.59649	-276.55668	-1095.93802	1186.48443	-249.32878	-1147.13316	1665.67380	-850.03112	-1256.70584	1466.61207	-808.70032	-1224.83200	1478.98587	-883.18303	-1127.44159	1341.76874	-864.15792	-1094.34629	1226.86071	-885.17208	-1129.37413	1221.54900	-916.76520	-1161.92736	1283.30850	-486.05044	-1161.63107	1277.58845	-699.36546	-1158.18681	1246.82945	-534.82787	-1116.50945	1297.04210	-697.97469	
2	0.01000000	-1143.79009	851.65365	-431.02334	-1126.67542	722.32274	-441.65633	-1260.05402	406.10022	-437.21752	-1329.92720	372.99841	-480.78010	-1126.84464	344.31321	-400.44259	-1093.96336	366.73729	-477.02856	-1183.51159	844.92756	-753.32438	-1150.57991	733.66736	-735.25269	-1271.21856	404.41468	-728.95225	-1332.85458	376.65365	-678.87986	-1130.89823	344.23265	-762.00394	-1097.04276	367.33449	-693.96578	-1145.10650	609.14029	-462.81627	-1185.54561	721.01127	-389.70484	-1194.59319	604.35246	-394.11340	-1230.79276	742.71976	-776.82917	-1223.24682	621.75238	-787.73527	-1037.16055	1080.38783	-452.43428	-1046.73935	969.83623	-467.33144	-1071.47483	941.37703	-412.04525	-1117.01241	1074.69001	-370.51605	-1121.78141	956.37608	-395.34780	-1088.84279	1093.95409	-775.88642	-1089.33601	956.31387	-760.14958	-1198.20666	1089.72049	-810.79209	-1198.59841	952.53246	-783.46610	-1063.58345	1350.54825	-450.03848	-1271.53657	1405.48713	-524.19423	-1070.15809	1343.63372	-716.20268	-1244.42003	1438.93026	-635.82427	-1184.17925	1897.60723	-589.89219	-1117.86475	1818.80718	-402.78881	-1125.25669	1837.50036	-769.70540	-1054.72574	1800.49896	-568.05874	-1053.48278	1799.71940	-609.32594	-1123.14647	1648.91523	-328.84022	-1225.76549	1434.97301	-366.92546	-1202.20051	1460.16262	-287.72156	-1104.39004	1313.74265	-283.97197	-1066.57313	1197.56605	-276.30447	-1096.27105	1186.64263	-249.07779	-1145.34267	1665.82447	-850.46888	-1256.21232	1467.55375	-809.32500	-1224.30097	1479.72198	-883.60895	-1127.40900	1341.93194	-864.42616	-1094.67711	1226.89773	-885.39532	-1129.71123	1221.72141	-916.99084	-1162.35171	1283.38650	-486.42669	-1161.74177	1277.23772	-699.72870	-1157.88139	1246.93507	-533.26911	-1117.99433	1296.06435	-697.20287	
3	0.02000000	-1143.49434	851.76605	-430.84991	-1126.29392	722.05894	-441.78090	-1260.07835	406.05923	-437.24752	-1329.92297	373.01330	-480.79473	-1126.86983	344.26391	-400.42861	-1093.98049	366.71149	-477.04000	-1182.27878	844.58765	-753.33353	-1149.51178	733.30389	-735.19552	-1271.16619	404.41303	-728.97821	-1332.83454	376.74148	-679.04186	-1130.89620	344.24195	-761.99869	-1097.06109	367.29497	-693.92761	-1144.86438	608.95536	-462.81622	-1185.13364	720.88936	-389.95524	-1194.46200	604.27590	-394.20156	-1229.63975	742.60950	-776.91427	-1222.49236	621.51250	-787.94407	-1037.10802	1080.32612	-452.60224	-1046.50135	969.71449	-467.51257	-1071.09083	941.24289	-412.12239	-1116.79046	1074.61867	-370.62975	-1121.44019	956.20706	-395.45802	-1088.30013	1093.79473	-775.85876	-1088.37876	956.22229	-759.77481	-1196.63634	1088.63737	-808.71859	-1197.61801	952.09262	-783.59405	-1063.48694	1350.23036	-450.19487	-1271.12811	1405.77349	-524.51177	-1069.97155	1343.09065	-716.17404	-1242.43078	1438.90918	-634.54478	-1181.00995	1897.59862	-589.94257	-1115.17139	1818.55311	-402.83715	-1122.31341	1837.29927	-769.71627	-1052.03470	1799.88883	-568.09444	-1050.85284	1799.17064	-609.40138	-1121.50475	1648.83013	-328.64087	-1225.21439	1435.70977	-366.70033	-1201.90121	1460.65371	-287.34486	-1104.34276	1314.13553	-283.44988	-1067.02235	1197.67843	-275.95461	-1096.73869	1186.72549	-248.94202	-1143.58334	1665.80753	-850.68582	-1255.76477	1468.39411	-810.06078	-1223.80134	1480.45533	-884.12989	-1127.35709	1342.15848	-864.82805	-1095.01123	1226.93460	-885.70906	-1130.04330	1221.92776	-917.23318	-1162.11331	1283.24079	-486.21484	-1161.59060	1277.08352	-699.51707	-1158.89501	1247.00702	-534.90941	-1116.25609	1296.14486	-698.01410	
4	0.03000000	-1143.24585	851.76859	-430.76909	-1125.87618	721.78969	-441.88741	-1260.08943	406.05323	-437.26110	-1329.91061	372.98345	-480.75092	-1126.87428	344.24509	-400.40625	-1093.93399	366.73507	-477.05722	-1181.04697	844.21713	-753.28146	-1148.43672	732.92162	-735.07154	-1271.14243	404.40633	-728.94076	-1332.81634	376.80532	-679.13007	-1130.89287	344.31211	-762.05158	-1097.06293	367.27188	-693.89493	-1144.57908	608.70958	-462.79255	-1184.62911	720.88015	-390.11662	-1194.17373	604.23649	-394.28523	-1228.57737	742.47346	-776.85584	-1221.78069	621.34154	-788.19327	-1037.05928	1080.20592	-452.83623	-1046.05751	969.64175	-467.49486	-1070.72808	941.08462	-412.28497	-1116.53833	1074.54436	-370.66112	-1120.99937	956.07712	-395.43678	-1087.76315	1093.71174	-775.77768	-1087.44339	956.07253	-759.78741	-1195.24654	1087.78025	-806.83771	-1196.60644	951.64382	-783.70838	-1063.34883	1349.92195	-450.32280	-1270.28437	1405.70468	-525.44824	-1069.77209	1342.64091	-716.02497	-1240.69083	1438.49377	-632.30760	-1177.59040	1897.59868	-590.39886	-1112.28351	1818.30342	-402.79564	-1119.24477	1837.08650	-769.83506	-1049.24355	1799.05978	-568.19072	-1048.06105	1798.42773	-609.65893	-1119.78065	1648.76501	-328.53329	-1224.82208	1436.46121	-366.37918	-1201.63859	1461.22116	-286.92752	-1104.22373	1314.64659	-282.82906	-1067.51596	1197.86657	-275.60314	-1097.33047	1186.89277	-248.65489	-1141.74100	1665.69112	-850.79180	-1255.28991	1469.11958	-810.49765	-1223.32053	1481.09768	-884.55213	-1127.30350	1342.38693	-865.22992	-1095.36691	1226.99894	-886.11111	-1130.38131	1222.12830	-917.47439	-1161.56173	1282.91783	-485.89767	-1161.26330	1276.78709	-699.20133	-1159.33442	1246.62359	-536.59968	-1114.43908	1296.39723	-698.78435	
